# xmcd CD database file
#
# Track frame offsets:
#	150
#	11955
#	26406
#	40540
#	56119
#	69821
#	84526
#	98363
#	112233
#	125788
#	139167
#	151951
#	162002
#	172898
#	185251
#	198123
#	208600
#
# Disc length: 2961 seconds
#
# Revision: 0
# Processed by: cddbd v1.5.2PL0 Copyright (c) Steve Scherf et al.
# Submitted via: CDex 1.51
#
DISCID=d90b8f11
DTITLE=Howlin' Wolf - 16 Great Songs vol. 2
DYEAR=1990
DGENRE=Blues
TTITLE0=Moanin' At Midnight
TTITLE1=My Life
TTITLE2=Highway 49
TTITLE3=Commit A Crime
TTITLE4=My Last Affair
TTITLE5=I Walked From Dallas
TTITLE6=Poor Boy
TTITLE7=My Baby Walked Off
TTITLE8=Tell Me
TTITLE9=Worried About You
TTITLE10=Little Baby
TTITLE11=Down In The Bottom
TTITLE12=Built For Comfort
TTITLE13=Dorothy Mae
TTITLE14=My Mind Is Ramblin'
TTITLE15=Do The Do
TTITLE16=Everybody's In The Mood
EXTD=YEAR: 1990
EXTT0=
EXTT1=
EXTT2=
EXTT3=
EXTT4=
EXTT5=
EXTT6=
EXTT7=
EXTT8=
EXTT9=
EXTT10=
EXTT11=
EXTT12=
EXTT13=
EXTT14=
EXTT15=
EXTT16=
PLAYORDER=
